REM DIRINDEX 1\2\4,1\2\5,1\2\6,1\3\7,1\3\8,1\3\9,1\3\10
REM DIRNAME cjc057,folder01,folder02,folder03,folder04,folder05,folder06,folder07,folder08,folder09
TITLE ""
FILE "a_075.mp3" MP3
  TRACK 01 AUDIO
    TITLE "0:"
    INDEX 01 00:00:00
  TRACK 02 AUDIO
    TITLE "4:cjc057_00995"
    INDEX 01 00:00:09
  TRACK 03 AUDIO
    TITLE "0:"
    INDEX 01 00:01:34
  TRACK 04 AUDIO
    TITLE "5:cjc057_00996"
    INDEX 01 00:01:66
  TRACK 05 AUDIO
    TITLE "0:"
    INDEX 01 00:04:40
  TRACK 06 AUDIO
    TITLE "4:cjc057_00997"
    INDEX 01 00:05:46
  TRACK 07 AUDIO
    TITLE "0:"
    INDEX 01 00:06:65
  TRACK 08 AUDIO
    TITLE "5:cjc057_00998"
    INDEX 01 00:07:17
  TRACK 09 AUDIO
    TITLE "0:"
    INDEX 01 00:08:40
  TRACK 10 AUDIO
    TITLE "4:cjc057_00999"
    INDEX 01 00:09:44
  TRACK 11 AUDIO
    TITLE "0:"
    INDEX 01 00:10:66
  TRACK 12 AUDIO
    TITLE "5:cjc057_01000"
    INDEX 01 00:11:23
  TRACK 13 AUDIO
    TITLE "0:"
    INDEX 01 00:13:00
  TRACK 14 AUDIO
    TITLE "4:cjc057_01001"
    INDEX 01 00:14:06
  TRACK 15 AUDIO
    TITLE "0:"
    INDEX 01 00:15:30
  TRACK 16 AUDIO
    TITLE "5:cjc057_01002"
    INDEX 01 00:15:62
  TRACK 17 AUDIO
    TITLE "0:"
    INDEX 01 00:17:16
  TRACK 18 AUDIO
    TITLE "4:cjc057_01003"
    INDEX 01 00:18:23
  TRACK 19 AUDIO
    TITLE "0:"
    INDEX 01 00:19:42
  TRACK 20 AUDIO
    TITLE "5:cjc057_01004"
    INDEX 01 00:19:73
  TRACK 21 AUDIO
    TITLE "0:"
    INDEX 01 00:21:15
  TRACK 22 AUDIO
    TITLE "4:cjc057_01005"
    INDEX 01 00:22:21
  TRACK 23 AUDIO
    TITLE "0:"
    INDEX 01 00:23:24
  TRACK 24 AUDIO
    TITLE "5:cjc057_01006"
    INDEX 01 00:23:55
  TRACK 25 AUDIO
    TITLE "0:"
    INDEX 01 00:25:09
  TRACK 26 AUDIO
    TITLE "4:cjc057_01007"
    INDEX 01 00:26:17
  TRACK 27 AUDIO
    TITLE "0:"
    INDEX 01 00:27:45
  TRACK 28 AUDIO
    TITLE "5:cjc057_01008"
    INDEX 01 00:28:02
  TRACK 29 AUDIO
    TITLE "0:"
    INDEX 01 00:29:33
  TRACK 30 AUDIO
    TITLE "4:cjc057_01009"
    INDEX 01 00:30:38
  TRACK 31 AUDIO
    TITLE "0:"
    INDEX 01 00:31:59
  TRACK 32 AUDIO
    TITLE "5:cjc057_01010"
    INDEX 01 00:32:15
  TRACK 33 AUDIO
    TITLE "0:"
    INDEX 01 00:33:44
  TRACK 34 AUDIO
    TITLE "4:cjc057_01011"
    INDEX 01 00:34:49
  TRACK 35 AUDIO
    TITLE "0:"
    INDEX 01 00:35:72
  TRACK 36 AUDIO
    TITLE "5:cjc057_01012"
    INDEX 01 00:36:29
  TRACK 37 AUDIO
    TITLE "0:"
    INDEX 01 00:37:54
  TRACK 38 AUDIO
    TITLE "4:cjc057_01013"
    INDEX 01 00:38:63
  TRACK 39 AUDIO
    TITLE "0:"
    INDEX 01 00:40:07
  TRACK 40 AUDIO
    TITLE "5:cjc057_01014"
    INDEX 01 00:40:34
  TRACK 41 AUDIO
    TITLE "0:"
    INDEX 01 00:41:65
  TRACK 42 AUDIO
    TITLE "4:cjc057_01015"
    INDEX 01 00:42:70
  TRACK 43 AUDIO
    TITLE "0:"
    INDEX 01 00:44:07
  TRACK 44 AUDIO
    TITLE "5:cjc057_01016"
    INDEX 01 00:44:40
  TRACK 45 AUDIO
    TITLE "0:"
    INDEX 01 00:46:74
  TRACK 46 AUDIO
    TITLE "4:cjc057_01017"
    INDEX 01 00:48:04
  TRACK 47 AUDIO
    TITLE "0:"
    INDEX 01 00:49:16
  TRACK 48 AUDIO
    TITLE "5:cjc057_01018"
    INDEX 01 00:49:49
  TRACK 49 AUDIO
    TITLE "0:"
    INDEX 01 00:50:64
  TRACK 50 AUDIO
    TITLE "4:cjc057_01019"
    INDEX 01 00:51:71
  TRACK 51 AUDIO
    TITLE "0:"
    INDEX 01 00:53:15
  TRACK 52 AUDIO
    TITLE "5:cjc057_01020"
    INDEX 01 00:53:47
  TRACK 53 AUDIO
    TITLE "0:"
    INDEX 01 00:54:70
  TRACK 54 AUDIO
    TITLE "4:cjc057_01021"
    INDEX 01 00:56:04
  TRACK 55 AUDIO
    TITLE "0:"
    INDEX 01 00:57:25
  TRACK 56 AUDIO
    TITLE "5:cjc057_01022"
    INDEX 01 00:57:56
  TRACK 57 AUDIO
    TITLE "0:"
    INDEX 01 00:59:22
  TRACK 58 AUDIO
    TITLE "4:cjc057_01023"
    INDEX 01 01:00:27
  TRACK 59 AUDIO
    TITLE "0:"
    INDEX 01 01:01:50
  TRACK 60 AUDIO
    TITLE "5:cjc057_01024"
    INDEX 01 01:02:06
  TRACK 61 AUDIO
    TITLE "0:"
    INDEX 01 01:04:60
